This XML file does not appear to have any style information associated with it. The document tree is shown below.
<svg>
<defs>
<g id="power_settings_new">
<title>Logout</title>
<path d="M13 3h-2v10h2V3zm4.83 2.17l-1.42 1.42C17.99 7.86 19 9.81 19 12c0 3.87-3.13 7-7 7s-7-3.13-7-7c0-2.19 1.01-4.14 2.58-5.42L6.17 5.17C4.23 6.82 3 9.26 3 12c0 4.97 4.03 9 9 9s9-4.03 9-9c0-2.74-1.23-5.18-3.17-6.83z"/>
</g>
<g id="settings">
<title>Settings</title>
<path d="M19.43 12.98c.04-.32.07-.64.07-.98s-.03-.66-.07-.98l2.11-1.65c.19-.15.24-.42.12-.64l-2-3.46c-.12-.22-.39-.3-.61-.22l-2.49 1c-.52-.4-1.08-.73-1.69-.98l-.38-2.65C14.46 2.18 14.25 2 14 2h-4c-.25 0-.46.18-.49.42l-.38 2.65c-.61.25-1.17.59-1.69.98l-2.49-1c-.23-.09-.49 0-.61.22l-2 3.46c-.13.22-.07.49.12.64l2.11 1.65c-.04.32-.07.65-.07.98s.03.66.07.98l-2.11 1.65c-.19.15-.24.42-.12.64l2 3.46c.12.22.39.3.61.22l2.49-1c.52.4 1.08.73 1.69.98l.38 2.65c.03.24.24.42.49.42h4c.25 0 .46-.18.49-.42l.38-2.65c.61-.25 1.17-.59 1.69-.98l2.49 1c.23.09.49 0 .61-.22l2-3.46c.12-.22.07-.49-.12-.64l-2.11-1.65zM12 15.5c-1.93 0-3.5-1.57-3.5-3.5s1.57-3.5 3.5-3.5 3.5 1.57 3.5 3.5-1.57 3.5-3.5 3.5z"/>
</g>
<g id="account_circle">
<title>Accounting Entries</title>
<path fill="none" d="M0 0h24v24H0V0z"/><path d="M11.99 18.54l-7.37-5.73L3 14.07l9 7 9-7-1.63-1.27zM12 16l7.36-5.73L21 9l-9-7-9 7 1.63 1.27L12 16zm0-11.47L17.74 9 12 13.47 6.26 9 12 4.53z"/>
</g>
<g id="home">
<title>Home</title>
<path d="M10,20V14H14V20H19V12H22L12,3L2,12H5V20H10Z"/>
</g>
<g id="create">
<title>Modify</title>
<path fill="none" d="M0 0h24v24H0V0z"/><path d="M14.06 9.02l.92.92L5.92 19H5v-.92l9.06-9.06M17.66 3c-.25 0-.51.1-.7.29l-1.83 1.83 3.75 3.75 1.83-1.83c.39-.39.39-1.02 0-1.41l-2.34-2.34c-.2-.2-.45-.29-.71-.29zm-3.6 3.19L3 17.25V21h3.75L17.81 9.94l-3.75-3.75z"/>
</g>
<g id="menu">
<title>Menu</title>
<path d="M3 18h18v-2H3v2zm0-5h18v-2H3v2zm0-7v2h18V6H3z"/>
</g>
<g id="perm_contact_calendar">
<title>Calendar</title>
<path d="M9 11H7v2h2v-2zm4 0h-2v2h2v-2zm4 0h-2v2h2v-2zm2-7h-1V2h-2v2H8V2H6v2H5c-1.11 0-1.99.9-1.99 2L3 20c0 1.1.89 2 2 2h14c1.1 0 2-.9 2-2V6c0-1.1-.9-2-2-2zm0 16H5V9h14v11z"/>
<path fill="none" d="M0 0h24v24H0z"/>
</g>
<g id="keyboard_arrow_down">
<path d="M7.41 7.84L12 12.42l4.59-4.58L18 9.25l-6 6-6-6z"/>
</g>
<g id="keyboard_arrow_up">
<path d="M7.41 15.41L12 10.83l4.59 4.58L18 14l-6-6-6 6z"/>
</g>
<g id="keyboard_arrow_left">
<path d="M15.41 16.09l-4.58-4.59 4.58-4.59L14 5.5l-6 6 6 6z"/>
</g>
<g id="keyboard_arrow_right">
<path d="M8.59 16.34l4.58-4.59-4.58-4.59L10 5.75l6 6-6 6z"/>
</g>
<g id="chevron-double-left">
<path d="M18.41,7.41L17,6L11,12L17,18L18.41,16.59L13.83,12L18.41,7.41M12.41,7.41L11,6L5,12L11,18L12.41,16.59L7.83,12L12.41,7.41Z"/>
</g>
<g id="chevron-double-right">
<path d="M5.59,7.41L7,6L13,12L7,18L5.59,16.59L10.17,12L5.59,7.41M11.59,7.41L13,6L19,12L13,18L11.59,16.59L16.17,12L11.59,7.41Z"/>
</g>
<g id="menu-left">
<path d="M19 5 v14 l-11 -7z" />
</g>
<g id="menu-right">
<path d="M8 5 v14 l11 -7z"/>
</g>
<g id="navigate_next">
<path d="M15.41,16.58L10.83,12L15.41,7.41L14,6L8,12L14,18L15.41,16.58Z"/>
</g>
<g id="navigate_before">
<path d="M8.59,16.58L13.17,12L8.59,7.41L10,6L16,12L10,18L8.59,16.58Z"/>
</g>
<g id="dashboard">
<path d="M13,3V9H21V3M13,21H21V11H13M3,21H11V15H3M3,13H11V3H3V13Z"/>
</g>
<g id="monetization_on">
<path d="M12 2C6.48 2 2 6.48 2 12s4.48 10 10 10 10-4.48 10-10S17.52 2 12 2zm1.41 16.09V20h-2.67v-1.93c-1.71-.36-3.16-1.46-3.27-3.4h1.96c.1 1.05.82 1.87 2.65 1.87 1.96 0 2.4-.98 2.4-1.59 0-.83-.44-1.61-2.67-2.14-2.48-.6-4.18-1.62-4.18-3.67 0-1.72 1.39-2.84 3.11-3.21V4h2.67v1.95c1.86.45 2.79 1.86 2.85 3.39H14.3c-.05-1.11-.64-1.87-2.22-1.87-1.5 0-2.4.68-2.4 1.64 0 .84.65 1.39 2.67 1.91s4.18 1.39 4.18 3.91c-.01 1.83-1.38 2.83-3.12 3.16z"/>
</g>
<g id="account_balance">
<path d="M4 10v7h3v-7H4zm6 0v7h3v-7h-3zM2 22h19v-3H2v3zm14-12v7h3v-7h-3zm-4.5-9L2 6v2h19V6l-9.5-5z"/>
</g>
<g id="dvr">
<path d="M0 0h24v24H0z" fill="none"/>
<path d="M21 3H3c-1.1 0-2 .9-2 2v12c0 1.1.9 2 2 2h5v2h8v-2h5c1.1 0 1.99-.9 1.99-2L23 5c0-1.1-.9-2-2-2zm0 14H3V5h18v12zm-2-9H8v2h11V8zm0 4H8v2h11v-2zM7 8H5v2h2V8zm0 4H5v2h2v-2z"/>
</g>
<g id="zoom_out_map">
<path clip-path="url(#b)" d="M15 3l2.3 2.3-2.89 2.87 1.42 1.42L18.7 6.7 21 9V3zM3 9l2.3-2.3 2.87 2.89 1.42-1.42L6.7 5.3 9 3H3zm6 12l-2.3-2.3 2.89-2.87-1.42-1.42L5.3 17.3 3 15v6zm12-6l-2.3 2.3-2.87-2.89-1.42 1.42 2.89 2.87L15 21h6z"/>
</g>
<g id="adjust">
<path d="M12 2C6.49 2 2 6.49 2 12s4.49 10 10 10 10-4.49 10-10S17.51 2 12 2zm0 18c-4.41 0-8-3.59-8-8s3.59-8 8-8 8 3.59 8 8-3.59 8-8 8zm3-8c0 1.66-1.34 3-3 3s-3-1.34-3-3 1.34-3 3-3 3 1.34 3 3z"/>
</g>
<g id="bubble_chart">
<path d="M7.2,11.2C8.97,11.2 10.4,12.63 10.4,14.4C10.4,16.17 8.97,17.6 7.2,17.6C5.43,17.6 4,16.17 4,14.4C4,12.63 5.43,11.2 7.2,11.2M14.8,16A2,2 0 0,1 16.8,18A2,2 0 0,1 14.8,20A2,2 0 0,1 12.8,18A2,2 0 0,1 14.8,16M15.2,4A4.8,4.8 0 0,1 20,8.8C20,11.45 17.85,13.6 15.2,13.6A4.8,4.8 0 0,1 10.4,8.8C10.4,6.15 12.55,4 15.2,4Z"/>
</g>
<g id="multiline_chart">
<path d="M22,21H2V3H4V19H6V10H10V19H12V6H16V19H18V14H22V21Z"/>
</g>
<g id="adhoc_chart">
<title>Append Chart</title>
<path d="M22,21H2V3H4V19H6V10H10V19H12V6H16V19H18V14H22V21Z"/>
</g>
<g id="pie_chart_outlined">
<path d="M21,11H13V3A8,8 0 0,1 21,11M19,13C19,15.78 17.58,18.23 15.43,19.67L11.58,13H19M11,21C8.22,21 5.77,19.58 4.33,17.43L10.82,13.68L14.56,20.17C13.5,20.7 12.28,21 11,21M3,13A8,8 0 0,1 11,5V12.42L3.83,16.56C3.3,15.5 3,14.28 3,13Z"/>
</g>
<g id="close">
<title>Close</title>
<path d="M19,6.41L17.59,5L12,10.59L6.41,5L5,6.41L10.59,12L5,17.59L6.41,19L12,13.41L17.59,19L19,17.59L13.41,12L19,6.41Z"/>
</g>
<g id="cancel">
<path opacity=".87" fill="none" d="M0 0h24v24H0V0z"/><path d="M12 2C6.47 2 2 6.47 2 12s4.47 10 10 10 10-4.47 10-10S17.53 2 12 2zm0 18c-4.41 0-8-3.59-8-8s3.59-8 8-8 8 3.59 8 8-3.59 8-8 8zm3.59-13L12 10.59 8.41 7 7 8.41 10.59 12 7 15.59 8.41 17 12 13.41 15.59 17 17 15.59 13.41 12 17 8.41z"/>
</g>
<g id="search">
<title>Search</title>
<path d="M15.5 14h-.79l-.28-.27C15.41 12.59 16 11.11 16 9.5 16 5.91 13.09 3 9.5 3S3 5.91 3 9.5 5.91 16 9.5 16c1.61 0 3.09-.59 4.23-1.57l.27.28v.79l5 4.99L20.49 19l-4.99-5zm-6 0C7.01 14 5 11.99 5 9.5S7.01 5 9.5 5 14 7.01 14 9.5 11.99 14 9.5 14z"/>
</g>
<g id="fullscreen_exit">
<path d="M14,14H19V16H16V19H14V14M5,14H10V19H8V16H5V14M8,5H10V10H5V8H8V5M19,8V10H14V5H16V8H19Z"/>
</g>
<g id="file_download">
<title>Download</title>
<path d="M5,20H19V18H5M19,9H15V3H9V9H5L12,16L19,9Z"/>
</g>
<g id="dvr">
<path clip-path="url(#b)" d="M17.5 10.5h2v1h-2zm-13 0h2v3h-2zM21 3H3c-1.11 0-2 .89-2 2v14c0 1.1.89 2 2 2h18c1.11 0 2-.9 2-2V5c0-1.11-.89-2-2-2zM8 13.5c0 .85-.65 1.5-1.5 1.5H3V9h3.5c.85 0 1.5.65 1.5 1.5v3zm4.62 1.5h-1.5L9.37 9h1.5l1 3.43 1-3.43h1.5l-1.75 6zM21 11.5c0 .6-.4 1.15-.9 1.4L21 15h-1.5l-.85-2H17.5v2H16V9h3.5c.85 0 1.5.65 1.5 1.5v1z"/>
</g>
<g id="help_outline">
<path d="M0 0h24v24H0z" fill="none"/>
<path d="M11 18h2v-2h-2v2zm1-16C6.48 2 2 6.48 2 12s4.48 10 10 10 10-4.48 10-10S17.52 2 12 2zm0 18c-4.41 0-8-3.59-8-8s3.59-8 8-8 8 3.59 8 8-3.59 8-8 8zm0-14c-2.21 0-4 1.79-4 4h2c0-1.1.9-2 2-2s2 .9 2 2c0 2-3 1.75-3 5h2c0-2.25 3-2.5 3-5 0-2.21-1.79-4-4-4z"/>
</g>
<g id="launch">
<path d="M0 0h24v24H0V0z" fill="none"/>
<path d="M21 3H3c-1.11 0-2 .89-2 2v12c0 1.1.89 2 2 2h5v2h8v-2h5c1.1 0 1.99-.9 1.99-2L23 5c0-1.11-.9-2-2-2zm0 14H3V5h18v12zm-5-7v2h-3v3h-2v-3H8v-2h3V7h2v3h3z"/>
</g>
<g id="save">
<title>Save</title>
<path fill="none" d="M0 0h24v24H0V0z"/><path d="M17 3H5c-1.11 0-2 .9-2 2v14c0 1.1.89 2 2 2h14c1.1 0 2-.9 2-2V7l-4-4zm2 16H5V5h11.17L19 7.83V19zm-7-7c-1.66 0-3 1.34-3 3s1.34 3 3 3 3-1.34 3-3-1.34-3-3-3zM6 6h9v4H6z"/>
</g>
<g id="new_releases">
<title>Authorize</title>
<path fill="none" d="M0 0h24v24H0V0z"/><path d="M23 12l-2.44-2.78.34-3.68-3.61-.82-1.89-3.18L12 3 8.6 1.54 6.71 4.72l-3.61.81.34 3.68L1 12l2.44 2.78-.34 3.69 3.61.82 1.89 3.18L12 21l3.4 1.46 1.89-3.18 3.61-.82-.34-3.68L23 12zm-4.51 2.11l.26 2.79-2.74.62-1.43 2.41L12 18.82l-2.58 1.11-1.43-2.41-2.74-.62.26-2.8L3.66 12l1.85-2.12-.26-2.78 2.74-.61 1.43-2.41L12 5.18l2.58-1.11 1.43 2.41 2.74.62-.26 2.79L20.34 12l-1.85 2.11zM11 15h2v2h-2zm0-8h2v6h-2z"/>
</g>
<g id="check_circle">
<title>Save and Authorize</title>
<path fill="none" d="M0 0h24v24H0V0zm0 0h24v24H0V0z"/><path d="M16.59 7.58L10 14.17l-3.59-3.58L5 12l5 5 8-8zM12 2C6.48 2 2 6.48 2 12s4.48 10 10 10 10-4.48 10-10S17.52 2 12 2zm0 18c-4.42 0-8-3.58-8-8s3.58-8 8-8 8 3.58 8 8-3.58 8-8 8z"/>
</g>
<g id="picture_as_pdf">
<title>PDF</title>
<path fill="none" d="M0 0h24v24H0V0z"/><path d="M20 2H8c-1.1 0-2 .9-2 2v12c0 1.1.9 2 2 2h12c1.1 0 2-.9 2-2V4c0-1.1-.9-2-2-2zm0 14H8V4h12v12zM4 6H2v14c0 1.1.9 2 2 2h14v-2H4V6zm12 6V9c0-.55-.45-1-1-1h-2v5h2c.55 0 1-.45 1-1zm-2-3h1v3h-1V9zm4 2h1v-1h-1V9h1V8h-2v5h1zm-8 0h1c.55 0 1-.45 1-1V9c0-.55-.45-1-1-1H9v5h1v-2zm0-2h1v1h-1V9z"/>
</g>
<g id="layers">
<title>Accounting Entries</title>
<path fill="none" d="M0 0h24v24H0V0z"/><path d="M11.99 18.54l-7.37-5.73L3 14.07l9 7 9-7-1.63-1.27zM12 16l7.36-5.73L21 9l-9-7-9 7 1.63 1.27L12 16zm0-11.47L17.74 9 12 13.47 6.26 9 12 4.53z"/>
</g>
<g id="file_download">
<title>Download</title>
<path d="M19 9h-4V3H9v6H5l7 7 7-7zM5 18v2h14v-2H5z"/>
</g>
<g id="delete">
<title>Delete</title>
<path fill="none" d="M0 0h24v24H0V0z"/><path d="M6 19c0 1.1.9 2 2 2h8c1.1 0 2-.9 2-2V7H6v12zM8 9h8v10H8V9zm7.5-5l-1-1h-5l-1 1H5v2h14V4h-3.5z"/>
</g>
<g id="refresh">
<title>Clear</title>
<path d="M17.65 6.35C16.2 4.9 14.21 4 12 4c-4.42 0-7.99 3.58-7.99 8s3.57 8 7.99 8c3.73 0 6.84-2.55 7.73-6h-2.08c-.82 2.33-3.04 4-5.65 4-3.31 0-6-2.69-6-6s2.69-6 6-6c1.66 0 3.14.69 4.22 1.78L13 11h7V4l-2.35 2.35z"/>
</g>
<g id="content_copy">
<title>Copy</title>
<path d="M16 1H4c-1.1 0-2 .9-2 2v14h2V3h12V1zm3 4H8c-1.1 0-2 .9-2 2v14c0 1.1.9 2 2 2h11c1.1 0 2-.9 2-2V7c0-1.1-.9-2-2-2zm0 16H8V7h11v14z"/>
</g>
<g id="settings_backup_restore">
<title>Reverse</title>
<path d="M14 12c0-1.1-.9-2-2-2s-2 .9-2 2 .9 2 2 2 2-.9 2-2zm-2-9c-4.97 0-9 4.03-9 9H0l4 4 4-4H5c0-3.87 3.13-7 7-7s7 3.13 7 7-3.13 7-7 7c-1.51 0-2.91-.49-4.06-1.3l-1.42 1.44C8.04 20.3 9.94 21 12 21c4.97 0 9-4.03 9-9s-4.03-9-9-9z"/>
</g>
<g id="update">
<title>Update</title>
<path clip-path="url(#b)" d="M21 10.12h-6.78l2.74-2.82c-2.73-2.7-7.15-2.8-9.88-.1-2.73 2.71-2.73 7.08 0 9.79 2.73 2.71 7.15 2.71 9.88 0C18.32 15.65 19 14.08 19 12.1h2c0 1.98-.88 4.55-2.64 6.29-3.51 3.48-9.21 3.48-12.72 0-3.5-3.47-3.53-9.11-.02-12.58 3.51-3.47 9.14-3.47 12.65 0L21 3v7.12zM12.5 8v4.25l3.5 2.08-.72 1.21L11 13V8h1.5z"/>
</g>
<g id="autorenew">
<title>Recall</title>
<path d="M12 6v3l4-4-4-4v3c-4.42 0-8 3.58-8 8 0 1.57.46 3.03 1.24 4.26L6.7 14.8c-.45-.83-.7-1.79-.7-2.8 0-3.31 2.69-6 6-6zm6.76 1.74L17.3 9.2c.44.84.7 1.79.7 2.8 0 3.31-2.69 6-6 6v-3l-4 4 4 4v-3c4.42 0 8-3.58 8-8 0-1.57-.46-3.03-1.24-4.26z"/>
</g>
<g id="help">
<title>What If</title>
<path fill="none" d="M0 0h24v24H0V0z"/><path d="M11 18h2v-2h-2v2zm1-16C6.48 2 2 6.48 2 12s4.48 10 10 10 10-4.48 10-10S17.52 2 12 2zm0 18c-4.41 0-8-3.59-8-8s3.59-8 8-8 8 3.59 8 8-3.59 8-8 8zm0-14c-2.21 0-4 1.79-4 4h2c0-1.1.9-2 2-2s2 .9 2 2c0 2-3 1.75-3 5h2c0-2.25 3-2.5 3-5 0-2.21-1.79-4-4-4z"/>
</g>
<g id="compare">
<title>Compare</title>
<path d="M10 3H5c-1.1 0-2 .9-2 2v14c0 1.1.9 2 2 2h5v2h2V1h-2v2zm0 15H5l5-6v6zm9-15h-5v2h5v13l-5-6v9h5c1.1 0 2-.9 2-2V5c0-1.1-.9-2-2-2z"/>
</g>
<g id="message">
<title>Swift Message</title>
<path fill="none" d="M0 0h24v24H0V0z"/><path d="M4 4h16v12H5.17L4 17.17V4m0-2c-1.1 0-1.99.9-1.99 2L2 22l4-4h14c1.1 0 2-.9 2-2V4c0-1.1-.9-2-2-2H4zm2 10h12v2H6v-2zm0-3h12v2H6V9zm0-3h12v2H6V6z"/>
</g>
<g id="done_all">
<title>Manual Confirm</title>
<path d="M18 7l-1.41-1.41-6.34 6.34 1.41 1.41L18 7zm4.24-1.41L11.66 16.17 7.48 12l-1.41 1.41L11.66 19l12-12-1.42-1.41zM.41 13.41L6 19l1.41-1.41L1.83 12 .41 13.41z"/>
</g>
<g id="find_in_page">
<title>Risk</title>
<path d="M20 19.59V8l-6-6H6c-1.1 0-1.99.9-1.99 2L4 20c0 1.1.89 2 1.99 2H18c.45 0 .85-.15 1.19-.4l-4.43-4.43c-.8.52-1.74.83-2.76.83-2.76 0-5-2.24-5-5s2.24-5 5-5 5 2.24 5 5c0 1.02-.31 1.96-.83 2.75L20 19.59zM9 13c0 1.66 1.34 3 3 3s3-1.34 3-3-1.34-3-3-3-3 1.34-3 3z"/>
</g>
<g id="pageview">
<title>Deal Blotter</title>
<path d="M11.5 9C10.12 9 9 10.12 9 11.5s1.12 2.5 2.5 2.5 2.5-1.12 2.5-2.5S12.88 9 11.5 9zM20 4H4c-1.1 0-2 .9-2 2v12c0 1.1.9 2 2 2h16c1.1 0 2-.9 2-2V6c0-1.1-.9-2-2-2zm-3.21 14.21l-2.91-2.91c-.69.44-1.51.7-2.39.7C9.01 16 7 13.99 7 11.5S9.01 7 11.5 7 16 9.01 16 11.5c0 .88-.26 1.69-.7 2.39l2.91 2.9-1.42 1.42z"/>
</g>
<g id="star">
<path d="M12,17.27L18.18,21L16.54,13.97L22,9.24L14.81,8.62L12,2L9.19,8.62L2,9.24L7.45,13.97L5.82,21L12,17.27Z"/>
</g>
<g id="star_border">
<path d="M22 9.24l-7.19-.62L12 2 9.19 8.63 2 9.24l5.46 4.73L5.82 21 12 17.27 18.18 21l-1.63-7.03L22 9.24zM12 15.4l-3.76 2.27 1-4.28-3.32-2.88 4.38-.38L12 6.1l1.71 4.04 4.38.38-3.32 2.88 1 4.28L12 15.4z"/>
</g>
<g id="notifications">
<path d="M12 22c1.1 0 2-.9 2-2h-4c0 1.1.89 2 2 2zm6-6v-5c0-3.07-1.64-5.64-4.5-6.32V4c0-.83-.67-1.5-1.5-1.5s-1.5.67-1.5 1.5v.68C7.63 5.36 6 7.92 6 11v5l-2 2v1h16v-1l-2-2z"/>
</g>
<g id="show_chart">
<path d="M3.5 18.49l6-6.01 4 4L22 6.92l-1.41-1.41-7.09 7.97-4-4L2 16.99z"/>
</g>
<g id="grade">
<path d="M12 17.27L18.18 21l-1.64-7.03L22 9.24l-7.19-.61L12 2 9.19 8.63 2 9.24l5.46 4.73L5.82 21z"/>
</g>
<g id="perm_data_setting">
<path d="M18.99 11.5c.34 0 .67.03 1 .07L20 0 0 20h11.56c-.04-.33-.07-.66-.07-1 0-4.14 3.36-7.5 7.5-7.5zm3.71 7.99c.02-.16.04-.32.04-.49 0-.17-.01-.33-.04-.49l1.06-.83c.09-.08.12-.21.06-.32l-1-1.73c-.06-.11-.19-.15-.31-.11l-1.24.5c-.26-.2-.54-.37-.85-.49l-.19-1.32c-.01-.12-.12-.21-.24-.21h-2c-.12 0-.23.09-.25.21l-.19 1.32c-.3.13-.59.29-.85.49l-1.24-.5c-.11-.04-.24 0-.31.11l-1 1.73c-.06.11-.04.24.06.32l1.06.83c-.02.16-.03.32-.03.49 0 .17.01.33.03.49l-1.06.83c-.09.08-.12.21-.06.32l1 1.73c.06.11.19.15.31.11l1.24-.5c.26.2.54.37.85.49l.19 1.32c.02.12.12.21.25.21h2c.12 0 .23-.09.25-.21l.19-1.32c.3-.13.59-.29.84-.49l1.25.5c.11.04.24 0 .31-.11l1-1.73c.06-.11.03-.24-.06-.32l-1.07-.83zm-3.71 1.01c-.83 0-1.5-.67-1.5-1.5s.67-1.5 1.5-1.5 1.5.67 1.5 1.5-.67 1.5-1.5 1.5z"/>
</g>
<g id="build">
<path d="M22.7 19l-9.1-9.1c.9-2.3.4-5-1.5-6.9-2-2-5-2.4-7.4-1.3L9 6 6 9 1.6 4.7C.4 7.1.9 10.1 2.9 12.1c1.9 1.9 4.6 2.4 6.9 1.5l9.1 9.1c.4.4 1 .4 1.4 0l2.3-2.3c.5-.4.5-1.1.1-1.4z"/>
</g>
<g id="arrow_drop_up">
<path d="M7 14l5-5 5 5z"/>
</g>
<g id="arrow_drop_down">
<path d="M7 10l5 5 5-5z"/>
</g>
<g id="fiber_manual_record">
<path d="M24 24H0V0h24v24z" fill="none"/>
<circle cx="12" cy="12" r="8"/>
</g>
<g id="first_page">
<path d="M18.41 16.59L13.82 12l4.59-4.59L17 6l-6 6 6 6zM6 6h2v12H6z"/>
</g>
<g id="chevron_left">
<path d="M15.41 7.41L14 6l-6 6 6 6 1.41-1.41L10.83 12z"/>
</g>
<g id="chevron_right">
<path d="M10 6L8.59 7.41 13.17 12l-4.58 4.59L10 18l6-6z"/>
</g>
<g id="last_page">
<path d="M5.59 7.41L10.18 12l-4.59 4.59L7 18l6-6-6-6zM16 6h2v12h-2z"/>
</g>
<g id="add_circle_outline">
<path d="M13 7h-2v4H7v2h4v4h2v-4h4v-2h-4V7zm-1-5C6.48 2 2 6.48 2 12s4.48 10 10 10 10-4.48 10-10S17.52 2 12 2zm0 18c-4.41 0-8-3.59-8-8s3.59-8 8-8 8 3.59 8 8-3.59 8-8 8z"/>
</g>
<g id="remove_circle">
<path d="M12 2C6.48 2 2 6.48 2 12s4.48 10 10 10 10-4.48 10-10S17.52 2 12 2zm5 11H7v-2h10v2z"/>
</g>
<g id="swap_vert">
<path d="M16 17.01V10h-2v7.01h-3L15 21l4-3.99h-3zM9 3L5 6.99h3V14h2V6.99h3L9 3z"/>
</g>
<g id="warning">
<title>Warning</title>
<path d="M1 21h22L12 2 1 21zm12-3h-2v-2h2v2zm0-4h-2v-4h2v4z"/>
</g>
<g id="error">
<title>Error</title>
<path d="M12 2C6.48 2 2 6.48 2 12s4.48 10 10 10 10-4.48 10-10S17.52 2 12 2zm1 15h-2v-2h2v2zm0-4h-2V7h2v6z"/>
</g>
<g id="assignment_turned_in">
<path d="M19 3h-4.18C14.4 1.84 13.3 1 12 1c-1.3 0-2.4.84-2.82 2H5c-1.1 0-2 .9-2 2v14c0 1.1.9 2 2 2h14c1.1 0 2-.9 2-2V5c0-1.1-.9-2-2-2zm-7 0c.55 0 1 .45 1 1s-.45 1-1 1-1-.45-1-1 .45-1 1-1zm-2 14l-4-4 1.41-1.41L10 14.17l6.59-6.59L18 9l-8 8z"/>
</g>
<g id="reply">
<title>Send Back</title>
	<path d="M10 9V5l-7 7 7 7v-4.1c5 0 8.5 1.6 11 5.1-1-5-4-10-11-11z"/>
    <path d="M0 0h24v24H0z" fill="none"/>
</g>

<g id="info">
<title>INFORMATION</title>
 <path fill="none" d="M0 0h24v24H0V0z"/>
 <path d="M11 7h2v2h-2zm0 4h2v6h-2zm1-9C6.48 2 2 6.48 2 12s4.48 10 10 10 10-4.48 10-10S17.52 2 12 2zm0 18c-4.41 0-8-3.59-8-8s3.59-8 8-8 8 3.59 8 8-3.59 8-8 8z"/>
</g>

<g id="print">
<title>Print</title>
<path fill="none" d="M0 0h24v24H0V0z"/><path d="M19 8h-1V3H6v5H5c-1.66 0-3 1.34-3 3v6h4v4h12v-4h4v-6c0-1.66-1.34-3-3-3zM8 5h8v3H8V5zm8 12v2H8v-4h8v2zm2-2v-2H6v2H4v-4c0-.55.45-1 1-1h14c.55 0 1 .45 1 1v4h-2z"/><circle cx="18" cy="11.5" r="1"/>
</g>
<g id="pdf">
<title>PDF</title>
  <path fill="none" d="M0 0h24v24H0V0z"/><path d="M20 2H8c-1.1 0-2 .9-2 2v12c0 1.1.9 2 2 2h12c1.1 0 2-.9 2-2V4c0-1.1-.9-2-2-2zm0 14H8V4h12v12zM4 6H2v14c0 1.1.9 2 2 2h14v-2H4V6zm12 6V9c0-.55-.45-1-1-1h-2v5h2c.55 0 1-.45 1-1zm-2-3h1v3h-1V9zm4 2h1v-1h-1V9h1V8h-2v5h1zm-8 0h1c.55 0 1-.45 1-1V9c0-.55-.45-1-1-1H9v5h1v-2zm0-2h1v1h-1V9z"/>
</g>


<g id="csv">
<title>CSV</title>
  <path stroke="null" d="m3.050257,1.274471l12.542805,0c0.109289,0 0.208177,0.038874 0.279379,0.101571l6.015125,5.232458l0.000052,-0.000041c0.076692,0.06671 0.114986,0.15418 0.114986,0.241608l0.000052,0l0,14.72625c0,0.290096 -0.136162,0.553534 -0.355489,0.744323c-0.219275,0.190789 -0.522168,0.309227 -0.855655,0.309227l-17.741254,0c-0.333435,0 -0.636328,-0.118438 -0.855655,-0.309227c-0.219327,-0.190789 -0.355424,-0.454227 -0.355424,-0.744323l0,-19.248337c0,-0.290096 0.136097,-0.553534 0.355424,-0.744323c0.219327,-0.190789 0.522168,-0.309227 0.855655,-0.309227l0,0.000041l-0.000001,-0.000001zm12.380131,0.683335l-12.380131,0c-0.116614,0 -0.222906,0.041776 -0.300192,0.109001c-0.077338,0.067266 -0.125296,0.159739 -0.125296,0.261174l0,19.248337c0,0.101435 0.047958,0.193907 0.125296,0.261133c0.077286,0.067266 0.183578,0.109001 0.300192,0.109001l17.741254,0c0.116614,0 0.222919,-0.041735 0.300244,-0.109001c0.077286,-0.067226 0.12531,-0.159698 0.12531,-0.261133l0,-14.584789l-5.786676,-5.033724l-0.000001,0z" id="_339085248" fill-rule="nonzero"/>
  <path stroke="null" d="m21.044217,7.047844l-5.515547,-0.013983l0,-0.313781l-0.001044,0.315c-0.200536,-0.000468 -0.362682,-0.14195 -0.36208,-0.315911c0.00004,-0.008787 0.000496,-0.017439 0.001352,-0.026024l-0.014029,-4.783476l-0.001406,0c-0.000496,-0.173974 0.161636,-0.315362 0.362186,-0.315803c0.101627,-0.000228 0.193589,0.035802 0.259676,0.093999l5.560444,4.823564l0,0c0.141798,0.12301 0.141798,0.322447 0,0.445457c-0.079259,0.068751 -0.186013,0.099062 -0.289553,0.090958z" id="_339084912" fill-rule="nonzero"/>
  <path stroke="null" d="m18.156898,12.912478l-12.489071,0c-0.306605,0 -0.585034,0.168844 -0.786682,0.440939c-0.201635,0.272082 -0.326818,0.647848 -0.326818,1.061564l0,5.331471l0.722264,0l13.271512,0l0.722253,0l0,-5.331471c0,-0.413716 -0.125127,-0.789482 -0.326774,-1.061564c-0.201648,-0.272096 -0.480077,-0.440939 -0.786682,-0.440939l-0.000001,0zm-9.935657,5.431973c-0.254155,-0.364436 -0.381544,-0.862443 -0.381544,-1.49313c0,-0.668075 0.128113,-1.18667 0.383613,-1.556649c0.255546,-0.369072 0.591346,-0.554112 1.008226,-0.554112c0.363524,0 0.659203,0.144845 0.886346,0.435455c0.135702,0.170975 0.236814,0.417603 0.30466,0.739093l-0.594819,0.191518c-0.034624,-0.208377 -0.108024,-0.372785 -0.220198,-0.493387c-0.111507,-0.120485 -0.247198,-0.180303 -0.406451,-0.180303c-0.220198,0 -0.399597,0.106535 -0.536689,0.320527c-0.137093,0.212999 -0.205618,0.558733 -0.205618,1.037133c0,0.507336 0.067132,0.868966 0.202869,1.083864c0.135013,0.215877 0.310882,0.323319 0.526973,0.323319c0.159943,0 0.297036,-0.068226 0.412005,-0.205569c0.114934,-0.136451 0.197315,-0.352257 0.247911,-0.645674l0.581652,0.248529c-0.089337,0.438262 -0.237538,0.763394 -0.445272,0.976465c-0.20702,0.212105 -0.470869,0.318568 -0.79011,0.318568c-0.394664,0 -0.719413,-0.182175 -0.973557,-0.545646l0.000001,0.000001zm2.572452,-0.827849l0.584446,-0.07754c0.034624,0.265329 0.105954,0.459698 0.213966,0.583955c0.107356,0.12335 0.252074,0.185961 0.434854,0.185961c0.193198,0 0.339319,-0.055124 0.436957,-0.166338c0.098319,-0.110263 0.147478,-0.2392 0.147478,-0.386794c0,-0.095334 -0.020757,-0.175668 -0.062292,-0.242007c-0.040857,-0.067303 -0.112853,-0.125236 -0.216047,-0.173839c-0.069927,-0.033616 -0.230627,-0.091549 -0.480574,-0.175668c-0.321989,-0.107384 -0.54774,-0.240121 -0.677211,-0.397087c-0.182815,-0.220498 -0.274233,-0.4896 -0.274233,-0.807262c0,-0.204663 0.042938,-0.395244 0.128791,-0.573719c0.085865,-0.177554 0.209815,-0.313025 0.371148,-0.406459c0.162058,-0.092527 0.356625,-0.139244 0.585171,-0.139244c0.373909,0 0.654362,0.110307 0.84342,0.330805c0.188323,0.22142 0.28732,0.515744 0.297025,0.884802l-0.600328,0.035574c-0.025643,-0.206548 -0.081035,-0.355121 -0.165542,-0.444784c-0.084451,-0.090627 -0.21116,-0.13553 -0.380129,-0.13553c-0.174511,0 -0.311605,0.047696 -0.409924,0.144859c-0.06374,0.061632 -0.095569,0.144845 -0.095569,0.248515c0,0.095334 0.029749,0.176646 0.089337,0.243894c0.07548,0.085948 0.259652,0.175668 0.551893,0.268195c0.292207,0.093434 0.508253,0.189675 0.648096,0.288652c0.139887,0.100028 0.249313,0.235486 0.328946,0.40836c0.078907,0.17286 0.118408,0.385872 0.118408,0.639138c0,0.229828 -0.047089,0.44569 -0.141969,0.645674c-0.094845,0.200876 -0.228512,0.350356 -0.40162,0.447519c-0.17312,0.098128 -0.389167,0.146673 -0.647416,0.146673c-0.376024,0 -0.664791,-0.116771 -0.866302,-0.351278c-0.201467,-0.234579 -0.322,-0.576527 -0.360776,-1.025024l-0.000001,-0.000001l-0.000001,-0.000002zm3.681812,1.305341l-1.062894,-4.013172l0.651567,0l0.752002,2.970353l0.728497,-2.970353l0.637078,0l-1.06502,4.013172l-0.641229,0z" id="svg_1"/>
</g>


<g id="xls">
<title>Excel</title>
  <path stroke="null" d="m22.636949,6.156348l-4.216994,-5.018648l-0.833988,-0.993744l-9.962957,0c-1.337448,0 -2.419306,1.111819 -2.419306,2.485153l0,3.157952l1.49962,0l-0.000777,-2.5533c0.001537,-0.772655 0.606951,-1.397898 1.357538,-1.397898l8.520481,-0.007931l0,4.142979c0.001537,1.542923 1.216217,2.791837 2.721226,2.791837l2.94904,0l-0.145174,11.951078c-0.002315,0.768682 -0.610026,1.389181 -1.358298,1.395526l-12.795396,-0.006345c-0.684928,0 -1.23629,-0.689432 -1.239382,-1.53895l0,-1.011978l-1.501935,0l0,1.508842c0,1.515187 0.989975,2.748254 2.205415,2.748254l13.769133,-0.003172c1.337466,0 2.422398,-1.117363 2.422398,-2.487525l0,-14.005142l-0.970662,-1.156989" fill-rule="evenodd" id="svg_2"/>
  <path stroke="null" d="m15.11626,19.6579l-14.92526,0l0,-14.25692l14.92526,0l0,14.25692m-13.491253,-1.434989l12.054303,0l0,-11.386942l-12.054303,0" id="svg_3"/>
  <polyline stroke="null" points="11.594609260559082,16.321582794189453 9.121222496032715,16.321582794189453 7.433073997497559,13.768798828125 5.66066312789917,16.321582794189453 3.175654888153076,16.321582794189453 6.258487701416016,12.173697471618652 3.7691221237182617,8.54429817199707 6.27882719039917,8.54429817199707 7.443968772888184,10.517186164855957 8.686108589172363,8.54429817199707 11.240124702453613,8.54429817199707 8.630176544189453,12.173697471618652 11.594609260559082,16.321582794189453 " id="svg_4"/>
</g>

<g id="xml">
<title>XML</title>
  <path id="document-file-xml"d="m15.117929,8.907683l0,-2.63915l0,0l-4.722975,-6.158016l-8.656616,0c-0.870673,0 -1.576498,0.790284 -1.576498,1.765881l0,20.220583c0,0.975271 0.701307,1.765881 1.572295,1.765881l11.8115,0c0.868351,0 1.572295,-0.79017 1.572295,-1.751339l0,-1.767527l6.291908,0c1.307194,0 2.366879,-1.180809 2.366879,-2.638085l0,-6.160144c0,-1.456977 -1.051641,-2.638085 -2.366879,-2.638085l-6.291908,0l0,0l0,0l-0.000002,0.000002l0.000001,-0.000001zm-0.787163,11.436315l0,1.765239c0,0.48248 -0.352413,0.87391 -0.787131,0.87391l-11.807501,0c-0.4292,0 -0.787131,-0.392072 -0.787131,-0.875723l0,-20.241468c0,-0.475223 0.35087,-0.875723 0.783683,-0.875723l7.875105,0l0,4.393374c0,0.984728 0.704118,1.76464 1.57268,1.76464l3.150295,0l0,1.759433l-6.291908,0c-1.307194,0 -2.366879,1.180809 -2.366879,2.638085l0,6.160144c0,1.456977 1.051641,2.638085 2.366879,2.638085l6.291908,0l0,0l0,0l0,0.000003l0,0.000001zm-3.935812,-18.913905l0,3.951001c0,0.490117 0.354735,0.887441 0.784596,0.887441l2.915028,0l-3.699625,-4.83844l0,0l0.000002,-0.000002l-0.000001,0zm-2.36577,8.357307c-0.867107,0 -1.570044,0.791903 -1.570044,1.752413l0,6.172056c0,0.967829 0.710288,1.752413 1.570044,1.752413l13.390327,0c0.867107,0 1.570044,-0.791903 1.570044,-1.752413l0,-6.172056c0,-0.967829 -0.710288,-1.752413 -1.570044,-1.752413l-13.390327,0l0,0zm1.578607,4.83844l-1.574325,-3.079007l0.787163,0l1.180743,2.309255l1.180743,-2.309255l0.787163,0l-1.574325,3.079007l1.574325,3.079007l-0.787163,0l-1.180743,-2.309255l-1.180743,2.309255l-0.787163,0l1.574325,-3.079007l0,0zm5.116557,-0.439858l-1.180743,-2.63915l-0.393581,0l-0.393581,0l0,6.158016l0.787163,0l0,-4.398583l0.787163,1.759433l0.393581,0l0.393581,0l0.787163,-1.759433l0,4.398583l0.787163,0l0,-6.158016l-0.393581,0l-0.393581,0l-1.180743,2.63915l0,0l-0.000003,0l-0.000001,0zm6.690881,2.63915l0,0.879717l-3.935812,0l0,-6.158016l0.787163,0l0,5.278299l3.148651,0l0,0l-0.000002,0z" stroke="null"/>
  <text fill= "#000000" stroke="null" transform="matrix(0.3493374594825061,0,0,0.3715301767088471,7.504065914395703,10.902428003018075) " xml:space="preserve" text-anchor="start" font-family="Helvetica, Arial, sans-serif" font-size="24" id="svg_1" y="18.043717" x="-3.599296" stroke-opacity="null" stroke-width="0" >XML</text>
</g>


<g id="tsv">
<title>TSV</title>
  <path " stroke="null" d="m22.757441,7.004675q0.380551,0.332948 0.652363,0.90371t0.271813,1.0464l0,13.698304q0,0.475639 -0.38054,0.808577t-0.924177,0.332948l-18.266125,0q-0.543627,0 -0.924177,-0.332948t-0.38054,-0.808577l0,-19.02543q0,-0.475628 0.38054,-0.808577t0.924177,-0.332948l12.177417,0q0.543636,0 1.196001,0.237824t1.032905,0.570762l4.240344,3.709954l0,0.000001zm-10.274694,-6.611332l0,4.470974l5.110173,0q-0.135912,-0.344835 -0.299007,-0.487526l-4.253936,-3.721852q-0.163087,-0.14269 -0.557228,-0.261598l-0.000001,0.000001zm5.2189,18.169277l0,-12.176273l-5.6538,0q-0.543636,0 -0.924186,-0.332938t-0.38054,-0.808587l0,-4.946612l-10.437781,0l0,18.264411l17.396307,0zm-13.305456,-2.78247l0,1.260441l3.819028,0l0,-1.260441l-1.019313,0l1.399862,-1.91443q0.067951,-0.083237 0.135901,-0.196201t0.101931,-0.16052t0.047572,-0.047567l0.027184,0q0.013582,0.047567 0.067951,0.118907q0.027184,0.047567 0.061155,0.08918t0.081552,0.095133t0.088339,0.101067l1.454221,1.91443l-1.032905,0l0,1.260441l3.954939,0l0,-1.260441l-0.924177,0l-2.609446,-3.246213l2.650211,-3.353233l0.910594,0l0,-1.272318l-3.791853,0l0,1.272318l1.005719,0l-1.399853,1.890657q-0.054368,0.083237 -0.135912,0.196201t-0.12232,0.16052l-0.027184,0.03568l-0.027175,0q-0.013592,-0.047567 -0.06796,-0.118907q-0.081543,-0.130803 -0.231047,-0.273494l-1.440629,-1.890657l1.032905,0l0,-1.272318l-3.941347,0l0,1.272318l0.924177,0l2.568678,3.234326l-2.63663,3.36512l-0.924177,0l0.000004,0z" id="svg_1"/>
</g>


<g id="html">
<title>Html</title>
  <path stroke="null" d="m15.014965,8.978779l0,-2.600579l0,0l-4.683819,-6.068017l-8.584848,0c-0.863455,0 -1.563428,0.778735 -1.563428,1.740074l0,19.925062c0,0.961018 0.695492,1.740074 1.559259,1.740074l11.713576,0c0.861151,0 1.559259,-0.778623 1.559259,-1.725744l0,-1.741694l6.239745,0c1.296357,0 2.347258,-1.163551 2.347258,-2.59953l0,-6.070115c0,-1.435684 -1.042922,-2.59953 -2.347258,-2.59953l-6.239745,0l0,0l0,0l0,-0.000001zm-0.780636,11.269174l0,1.73944c0,0.475429 -0.349491,0.861138 -0.780605,0.861138l-11.709612,0c-0.425642,0 -0.780605,-0.386341 -0.780605,-0.862924l0,-19.945642c0,-0.468278 0.347961,-0.862924 0.777187,-0.862924l7.809816,0l0,4.329166c0,0.970336 0.698279,1.738851 1.559642,1.738851l3.124179,0l0,1.73372l-6.239745,0c-1.296357,0 -2.347258,1.163551 -2.347258,2.59953l0,6.070115c0,1.435684 1.042922,2.59953 2.347258,2.59953l6.239745,0l0,0l0,0l-0.000002,0.000001zm-3.903182,-18.63748l0,3.893257c0,0.482953 0.351793,0.874471 0.778091,0.874471l2.890861,0l-3.668952,-4.767727l0,0zm-2.346156,8.235165c-0.859918,0 -1.557026,0.78033 -1.557026,1.726802l0,6.081853c0,0.953684 0.7044,1.726802 1.557026,1.726802l13.279315,0c0.859918,0 1.557026,-0.78033 1.557026,-1.726802l0,-6.081853c0,-0.953684 -0.7044,-1.726802 -1.557026,-1.726802l-13.279315,0l0,0zm1.56552,4.767727l-1.561273,-3.034009l0.780636,0l1.170955,2.275506l1.170955,-2.275506l0.780636,0l-1.561273,3.034009l1.561273,3.034009l-0.780636,0l-1.170955,-2.275506l-1.170955,2.275506l-0.780636,0l1.561273,-3.034009l0,0zm5.074137,-0.43343l-1.170955,-2.600579l-0.390318,0l-0.390318,0l0,6.068017l0.780636,0l0,-4.334297l0.780636,1.73372l0.390318,0l0.390318,0l0.780636,-1.73372l0,4.334297l0.780636,0l0,-6.068017l-0.390318,0l-0.390318,0l-1.170955,2.600579l0,0zm6.635412,2.600579l0,0.866859l-3.903182,0l0,-6.068017l0.780636,0l0,5.201158l3.122546,0l0,0z" id="document-file-xml"/>
  <text fill= "#000000" stroke-width="0" stroke-opacity="null" x="14.166489" y="40.376771" id="svg_1" font-size="24" font-family="Helvetica, Arial, sans-serif" text-anchor="start" xml:space="preserve" transform="matrix(0.2525823011713346,0,0,0.2877463154022336,2.8145249059736988,5.175945864527674) " stroke="null">HTML</text>
</g>


<g id="json">
<title>Json</title>
  <path stroke="null" d="m15.157087,8.923491l0,-2.621492l0,0l-4.708962,-6.116815l-8.630933,0c-0.86809,0 -1.571821,0.784997 -1.571821,1.754067l0,20.085294c0,0.968746 0.699226,1.754067 1.56763,1.754067l11.776457,0c0.865774,0 1.56763,-0.784884 1.56763,-1.739622l0,-1.755701l6.273241,0c1.303316,0 2.359858,-1.172908 2.359858,-2.620434l0,-6.118929c0,-1.447229 -1.048521,-2.620434 -2.359858,-2.620434l-6.273241,0l0,0l0,0l0,-0.000002zm-0.784827,11.359797l0,1.753428c0,0.479252 -0.351368,0.868063 -0.784795,0.868063l-11.772471,0c-0.427927,0 -0.784795,-0.389448 -0.784795,-0.869864l0,-20.106039c0,-0.472044 0.349829,-0.869864 0.781359,-0.869864l7.851741,0l0,4.36398c0,0.97814 0.702027,1.752834 1.568014,1.752834l3.14095,0l0,1.747662l-6.273241,0c-1.303316,0 -2.359858,1.172908 -2.359858,2.620434l0,6.118929c0,1.447229 1.048521,2.620434 2.359858,2.620434l6.273241,0l0,0l0,0l-0.000002,0.000002zm-3.924135,-18.787357l0,3.924565c0,0.486837 0.353682,0.881503 0.782268,0.881503l2.906379,0l-3.688648,-4.806068l0,0zm-2.358751,8.30139c-0.864534,0 -1.565385,0.786605 -1.565385,1.740689l0,6.130761c0,0.961354 0.708181,1.740689 1.565385,1.740689l13.350601,0c0.864534,0 1.565385,-0.786605 1.565385,-1.740689l0,-6.130761c0,-0.961354 -0.708181,-1.740689 -1.565385,-1.740689l-13.350601,0l0,0zm1.573924,4.806068l-1.569654,-3.058407l0.784827,0l1.177241,2.293805l1.177241,-2.293805l0.784827,0l-1.569654,3.058407l1.569654,3.058407l-0.784827,0l-1.177241,-2.293805l-1.177241,2.293805l-0.784827,0l1.569654,-3.058407l0,0zm5.101376,-0.436915l-1.177241,-2.621492l-0.392414,0l-0.392414,0l0,6.116815l0.784827,0l0,-4.369153l0.784827,1.747662l0.392414,0l0.392414,0l0.784827,-1.747662l0,4.369153l0.784827,0l0,-6.116815l-0.392414,0l-0.392414,0l-1.177241,2.621492l0,0zm6.671032,2.621492l0,0.87383l-3.924135,0l0,-6.116815l0.784827,0l0,5.242984l3.139308,0l0,0z" id="document-file-xml"/>
  <text fill="#000000" stroke-width="0" stroke-opacity="null" x="12.472167" y="43.395076" id="svg_1" font-size="24" font-family="Helvetica, Arial, sans-serif" text-anchor="start" xml:space="preserve" transform="matrix(0.26070828719053013,0,0,0.2852767608093131,3.344848359269348,4.424984579727344) " stroke="null">JSON</text>
</g>
<g id="tick">
<title>Go</title>
<path d="M12 2C6.48 2 2 6.48 2 12s4.48 10 10 10 10-4.48 10-10S17.52 2 12 2zm-2 15l-5-5 1.41-1.41L10 14.17l7.59-7.59L19 8l-9 9z"/>
</g>
<svg id="sm-delete" viewBox="0 0 24 32" >
<title>Delete</title>
<g>
<path d="M6 19c0 1.1.9 2 2 2h8c1.1 0 2-.9 2-2V7H6v12zM19 4h-3.5l-1-1h-5l-1 1H5v2h14V4z"/>
</g>
<g id="sm-circle">
	<path d="M24 24H0V0h24v24z" fill="none"/>
<circle cx="12" cy="12" r="4"/>
</g>
<g id="publish">
	 <path d="M0 0h24v24H0z" fill="none"/>
    <path d="M5 4v2h14V4H5zm0 10h4v6h6v-6h4l-7-7-7 7z"/>
</g>
</svg>
<g id="validate">
<title>Validate</title>
<path d="M0 0h24v24H0z" fill="none"/><path d="M18 7l-1.41-1.41-6.34 6.34 1.41 1.41L18 7zm4.24-1.41L11.66 16.17 7.48 12l-1.41 1.41L11.66 19l12-12-1.42-1.41zM.41 13.41L6 19l1.41-1.41L1.83 12 .41 13.41z"/>
</g>
</defs>
</svg>